<svg xmlns="http://www.w3.org/2000/svg" viewBox="0 0 100 100">
  <defs>
    <linearGradient id="checkGradient" x1="0%" y1="0%" x2="0%" y2="100%">
      <stop offset="0%" style="stop-color:#00d4ff;stop-opacity:1" />
      <stop offset="100%" style="stop-color:#0099cc;stop-opacity:1" />
    </linearGradient>
    <filter id="glow">
      <feGaussianBlur stdDeviation="2" result="coloredBlur"/>
      <feMerge>
        <feMergeNode in="coloredBlur"/>
        <feMergeNode in="SourceGraphic"/>
      </feMerge>
    </filter>
  </defs>
  <rect width="100" height="100" fill="#0a0a0a"/>
  <path d="M50 15 C30 15 15 30 15 50 C15 70 30 85 50 85 C70 85 85 70 85 50 C85 30 70 15 50 15 Z M50 20 C67 20 80 33 80 50 C80 67 67 80 50 80 C33 80 20 67 20 50 C20 33 33 20 50 20 Z M65 35 L45 55 L35 45 L30 50 L45 65 L70 40 Z" fill="url(#checkGradient)" filter="url(#glow)"/>
</svg>
